Coordinates
version=1
nRows=32
nColumns=34
inDegrees=no

Units are S.I. units (second, meters, Newtons, ...)
If the header above contains a line with 'inDegrees', this indicates whether rotational values are in degrees (yes) or radians (no).

endheader
time	pelvis_tilt	pelvis_list	pelvis_rotation	pelvis_tx	pelvis_ty	pelvis_tz	hip_flexion_r	hip_adduction_r	hip_rotation_r	knee_angle_r	ankle_angle_r	subtalar_angle_r	mtp_angle_r	hip_flexion_l	hip_adduction_l	hip_rotation_l	knee_angle_l	ankle_angle_l	subtalar_angle_l	mtp_angle_l	lumbar_extension	lumbar_bending	lumbar_rotation	arm_flex_r	arm_add_r	arm_rot_r	elbow_flex_r	pro_sup_r	arm_flex_l	arm_add_l	arm_rot_l	elbow_flex_l	pro_sup_l
1.76	-0.400121	-0.0822091	0.00468575	-0.362565	0.806439	-0.588335	1.31651	0.0418635	-0.01621	1.38783	0.430557	-0.374644	-0.115704	1.34249	-0.100479	0.119846	1.43129	0.472201	-0.236963	-0.115704	-0.276265	0.0818807	0.0535695	0.117492	-0.251213	-0.195618	1.39838	1.88352	0.0045495	-0.309718	0.0212267	1.06954	1.46705
1.77	-0.394007	-0.0798187	0.00256835	-0.3598	0.803433	-0.588551	1.31446	0.0432317	-0.0128419	1.40198	0.441718	-0.37277	-0.115704	1.33919	-0.101032	0.118283	1.44506	0.482844	-0.236375	-0.115704	-0.282768	0.0766	0.0555295	0.137143	-0.250365	-0.170573	1.38356	1.89125	0.0267911	-0.291132	0.0279524	1.04979	1.46299
1.78	-0.387137	-0.0767621	0.00120979	-0.356629	0.800741	-0.588791	1.31079	0.0441652	-0.00849041	1.41581	0.45271	-0.371572	-0.115704	1.33394	-0.100864	0.1161	1.45791	0.493524	-0.235539	-0.115704	-0.28695	0.0705926	0.0560449	0.158871	-0.251326	-0.146381	1.38258	1.90309	0.0495374	-0.273594	0.0279504	1.04394	1.46496
1.79	-0.379794	-0.0732554	0.000756333	-0.353062	0.798437	-0.589083	1.30557	0.0444808	-0.0035098	1.42894	0.463347	-0.370899	-0.115704	1.32695	-0.0999135	0.113453	1.46952	0.504035	-0.234451	-0.115704	-0.288262	0.0642451	0.0548126	0.183672	-0.254526	-0.123001	1.39488	1.91707	0.072887	-0.258273	0.0225605	1.05271	1.47168
1.8	-0.372214	-0.0695406	0.0013069	-0.349124	0.796605	-0.589454	1.29884	0.0440182	0.00167858	1.44095	0.473435	-0.370557	-0.115704	1.31836	-0.0981885	0.110496	1.47956	0.514162	-0.233089	-0.115704	-0.286314	0.0579704	0.0516248	0.212843	-0.260521	-0.0999874	1.41905	1.93133	0.0972669	-0.246437	0.013581	1.07594	1.48196
1.81	-0.364584	-0.0658545	0.00287639	-0.344854	0.795334	-0.589919	1.2906	0.0426923	0.00665291	1.45143	0.482768	-0.370354	-0.115704	1.30831	-0.0957892	0.107348	1.48772	0.5237	-0.2314	-0.115704	-0.280905	0.0521527	0.046427	0.247842	-0.269873	-0.0766357	1.45299	1.94428	0.123415	-0.239309	0.00292749	1.11259	1.49496
1.82	-0.357044	-0.0624039	0.00537355	-0.3403	0.794726	-0.59048	1.28081	0.0405326	0.0110507	1.45991	0.491131	-0.37014	-0.115704	1.29685	-0.0929193	0.104081	1.4937	0.532462	-0.229299	-0.115704	-0.272029	0.0471022	0.0393425	0.290139	-0.283026	-0.052118	1.49428	1.9546	0.152294	-0.237958	-0.00764419	1.16093	1.51007
1.83	-0.3497	-0.0593528	0.00860425	-0.335511	0.794894	-0.591124	1.26941	0.0376932	0.0146104	1.46593	0.498305	-0.369854	-0.115704	1.284	-0.0898707	0.100715	1.49717	0.540286	-0.226689	-0.115704	-0.259864	0.0430319	0.0306559	0.341082	-0.30022	-0.0255731	1.5404	1.96112	0.184959	-0.243229	-0.016712	1.21875	1.52674
1.84	-0.342635	-0.0568208	0.0122986	-0.330539	0.795953	-0.591824	1.2563	0.0344376	0.0171936	1.46901	0.504087	-0.369556	-0.115704	1.26975	-0.0869851	0.0972297	1.49784	0.547027	-0.223497	-0.115704	-0.244723	0.0400585	0.0207693	0.401785	-0.321425	0.00383132	1.58887	1.96285	0.222416	-0.255692	-0.0232652	1.28366	1.54418
1.85	-0.335924	-0.0548886	0.0161497	-0.325427	0.798023	-0.592548	1.24141	0.0311061	0.0187894	1.46869	0.508301	-0.369448	-0.115704	1.25404	-0.0846121	0.0935928	1.49539	0.552564	-0.219708	-0.115704	-0.227014	0.0382165	0.0101529	0.473052	-0.34633	0.0368405	1.63742	1.95909	0.265513	-0.275618	-0.0266968	1.35328	1.56125
1.86	-0.329632	-0.0536046	0.0198577	-0.320209	0.801218	-0.593259	1.22463	0.0280649	0.0194993	1.46454	0.510804	-0.36986	-0.115704	1.2368	-0.08307	0.0897824	1.48956	0.556791	-0.21538	-0.115704	-0.20719	0.0374783	-0.00069838	0.555319	-0.374348	0.074046	1.68401	1.94953	0.314872	-0.302961	-0.0267285	1.42536	1.57654
1.87	-0.323804	-0.0529896	0.023179	-0.314905	0.80565	-0.593927	1.20585	0.0256326	0.0195	1.45614	0.511481	-0.371185	-0.115704	1.21796	-0.0826036	0.0858087	1.48004	0.559611	-0.210655	-0.115704	-0.185722	0.0377753	-0.0113056	0.648605	-0.404673	0.115826	1.72682	1.93437	0.370883	-0.337329	-0.0232929	1.4978	1.58855
1.88	-0.318453	-0.0530425	0.025969	-0.30952	0.811421	-0.594534	1.1849	0.024003	0.0189881	1.44312	0.510222	-0.373788	-0.115704	1.19736	-0.08335	0.0817307	1.46657	0.560897	-0.205763	-0.115704	-0.163076	0.0390204	-0.0212423	0.752479	-0.436377	0.162323	1.76432	1.9143	0.43372	-0.377972	-0.0163885	1.56863	1.59608
1.89	-0.313542	-0.0537513	0.028202	-0.304042	0.818627	-0.595076	1.16157	0.0232139	0.0181241	1.42506	0.506858	-0.377924	-0.115704	1.1748	-0.0853347	0.0776631	1.44881	0.560446	-0.201015	-0.115704	-0.139693	0.0411267	-0.030156	0.866027	-0.46852	0.213446	1.79526	1.89059	0.503397	-0.423799	-0.00591413	1.63602	1.59849
1.9	-0.308968	-0.0551083	0.0299583	-0.298445	0.827361	-0.595562	1.13551	0.0231751	0.0169889	1.40151	0.501068	-0.383687	-0.115704	1.14998	-0.0885043	0.073766	1.42636	0.557917	-0.196769	-0.115704	-0.115973	0.0440224	-0.037779	0.987862	-0.500244	0.268927	1.81867	1.86504	0.579798	-0.473437	0.00847993	1.69827	1.59577
1.91	-0.304554	-0.0571209	0.0313947	-0.292682	0.837708	-0.596011	1.10623	0.0237294	0.0155506	1.37184	0.492261	-0.390987	-0.115704	1.12243	-0.0927679	0.0702117	1.39867	0.552768	-0.193376	-0.115704	-0.0922555	0.0476626	-0.0439404	1.11617	-0.530814	0.3284	1.83388	1.83962	0.662714	-0.525324	0.0274972	1.75388	1.58848
1.92	-0.300048	-0.0598095	0.0327092	-0.286692	0.849756	-0.596447	1.07311	0.0247058	0.0136284	1.33527	0.479485	-0.399494	-0.115704	1.09156	-0.0980187	0.067126	1.365	0.544173	-0.191121	-0.115704	-0.0688114	0.0520371	-0.0485854	1.24879	-0.559611	0.391494	1.84055	1.81602	0.751858	-0.577838	0.0522432	1.80169	1.57755
1.93	-0.29513	-0.0631911	0.0341051	-0.280397	0.863588	-0.596903	1.03535	0.0259502	0.0108555	1.29075	0.461382	-0.408558	-0.115704	1.05656	-0.104132	0.0645049	1.32439	0.530949	-0.190156	-0.115704	-0.0458246	0.057169	-0.0517874	1.38333	-0.586087	0.457854	1.83864	1.79548	0.846877	-0.629457	0.0841993	1.8409	1.56408
1.94	-0.289449	-0.0672558	0.0357563	-0.273711	0.879281	-0.597415	0.992094	0.0273409	0.00664867	1.23709	0.436224	-0.417119	-0.115704	1.01655	-0.11095	0.0621128	1.27564	0.511525	-0.190408	-0.115704	-0.0233857	0.0631021	-0.053741	1.51726	-0.609732	0.5271	1.82852	1.7789	0.947362	-0.678937	0.125117	1.8712	1.54943
1.95	-0.282664	-0.0719426	0.0377735	-0.26655	0.896892	-0.598023	0.942513	0.0287978	0.000201896	1.17302	0.402053	-0.423643	-0.115704	0.970608	-0.118274	0.0593798	1.21745	0.483982	-0.191465	-0.115704	-0.00148652	0.0698772	-0.0547342	1.648	-0.630097	0.598764	1.81099	1.76677	1.05283	-0.725487	0.176829	1.89281	1.53512
1.96	-0.274514	-0.0771198	0.0401749	-0.258842	0.916443	-0.598764	0.886009	0.0302884	-0.00947722	1.09744	0.356921	-0.42613	-0.115704	0.917957	-0.12585	0.0553214	1.14856	0.446213	-0.192463	-0.115704	0.0199859	0.0774998	-0.0551098	1.773	-0.646877	0.672225	1.78748	1.75885	1.16261	-0.768925	0.24094	1.90651	1.52261
1.97	-0.264904	-0.0825744	0.0428665	-0.250544	0.937901	-0.599662	0.82243	0.0318269	-0.023475	1.00968	0.299263	-0.422232	-0.115704	0.858216	-0.133372	0.0485109	1.06801	0.396207	-0.192023	-0.115704	0.0412603	0.0859049	-0.055227	1.88977	-0.66002	0.746621	1.76008	1.7538	1.27561	-0.80976	0.318367	1.91369	1.51299
1.98	-0.253994	-0.0880149	0.0456411	-0.241657	0.961155	-0.600728	0.752311	0.0334575	-0.0428203	0.909877	0.228342	-0.409498	-0.115704	0.791626	-0.140476	0.037142	0.975485	0.33246	-0.18828	-0.115704	0.0626937	0.0949272	-0.0554343	1.99593	-0.669826	0.82074	1.7315	1.74929	1.38992	-0.849157	0.408702	1.91625	1.50679
1.99	-0.242262	-0.0930938	0.0482026	-0.232243	0.986005	-0.601957	0.677068	0.0352215	-0.0682827	0.799317	0.14472	-0.385733	-0.115704	0.719278	-0.146742	0.0192212	0.871647	0.254458	-0.17905	-0.115704	0.0847768	0.104295	-0.0560692	2.08917	-0.676999	0.892921	1.70484	1.74239	1.50212	-0.888766	0.50941	1.91652	1.50405
2	-0.230539	-0.0974512	0.0502134	-0.222435	1.01215	-0.603335	0.599095	0.0371235	-0.100129	0.680664	0.0506255	-0.349466	-0.115704	0.643256	-0.151715	-0.00708787	0.758433	0.163162	-0.162138	-0.115704	0.108117	0.113655	-0.0574918	2.16731	-0.682607	0.960983	1.68324	1.73018	1.60658	-0.930437	0.614942	1.91708	1.50422
2.01	-0.219964	-0.100773	0.0513592	-0.212441	1.03922	-0.604845	0.52171	0.0391105	-0.137868	0.558068	-0.0499113	-0.30046	-0.115704	0.566622	-0.154934	-0.0429807	0.639205	0.0613616	-0.135776	-0.115704	0.133384	0.122631	-0.060137	2.22831	-0.68797	1.02224	1.66948	1.7104	1.69465	-0.975865	0.715953	1.92057	1.50621
2.02	-0.211862	-0.102851	0.0514205	-0.202537	1.06674	-0.606472	0.448883	0.04107	-0.18004	0.436995	-0.151279	-0.240154	-0.115704	0.493202	-0.155992	-0.0884566	0.518692	-0.0462697	-0.0991359	-0.115704	0.161194	0.130889	-0.0645564	2.27035	-0.694535	1.07362	1.66563	1.68196	1.75427	-1.02619	0.798949	1.92951	1.50854
2.03	-0.207521	-0.103637	0.0503403	-0.193047	1.09426	-0.608204	0.384751	0.0428431	-0.224173	0.323745	-0.246937	-0.171881	-0.115704	0.427135	-0.154602	-0.141831	0.402644	-0.153549	-0.0528233	-0.115704	0.191915	0.138185	-0.0714137	2.29207	-0.703788	1.112	1.67285	1.64521	1.77027	-1.08158	0.846742	1.94608	1.50946
2.04	-0.20787	-0.103261	0.0482654	-0.184311	1.12131	-0.61003	0.332938	0.0442578	-0.266957	0.224682	-0.33049	-0.100721	-0.115704	0.372211	-0.150687	-0.199523	0.297196	-0.253642	0.000799918	-0.115704	0.225402	0.144379	-0.0814062	2.29302	-0.717241	1.13479	1.69136	1.60192	1.72577	-1.14096	0.8401	1.97194	1.50733
2.05	-0.213106	-0.102011	0.0455385	-0.176648	1.14754	-0.611919	0.295787	0.0451905	-0.304696	0.145274	-0.397009	-0.0329246	-0.115704	0.331084	-0.144458	-0.256363	0.208001	-0.340302	0.0576809	-0.115704	0.260668	0.149398	-0.095081	2.27439	-0.736473	1.14086	1.72063	1.55486	1.60505	-1.20179	0.760809	2.00798	1.501
2.06	-0.22241	-0.100289	0.0426436	-0.170314	1.17272	-0.613802	0.273716	0.045656	-0.334014	0.089119	-0.444185	0.0251059	-0.115704	0.304575	-0.136474	-0.306501	0.139273	-0.409158	0.112675	-0.115704	0.29567	0.153194	-0.11257	2.24007	-0.763198	1.13184	1.75959	1.50705	1.3976	-1.26016	0.596027	2.05412	1.49003
2.07	-0.23389	-0.098573	0.040135	-0.165471	1.19676	-0.615569	0.264957	0.0459026	-0.352637	0.0572478	-0.472759	0.0681034	-0.115704	0.291348	-0.127626	-0.344742	0.0929964	-0.458537	0.160649	-0.115704	0.327364	0.15573	-0.133333	2.19782	-0.799231	1.11352	1.80697	1.46141	1.10283	-1.31121	0.343275	2.10926	1.47481
